<svg width="32" height="32" viewBox="0 0 32 32" fill="none" xmlns="http://www.w3.org/2000/svg">
<g clip-path="url(#clip0_134_259)">
<path d="M30.0733 18.216L27.54 9.10134C26.7974 6.43112 25.1836 4.08572 22.9551 2.43796C20.7266 0.790208 18.0112 -0.0653471 15.2406 0.00729301C12.47 0.0799332 9.80319 1.0766 7.66406 2.83887C5.52493 4.60114 4.03625 7.02787 3.43464 9.73334L1.47331 18.5533C1.25666 19.5279 1.26167 20.5387 1.48797 21.5111C1.71426 22.4835 2.15606 23.3926 2.78075 24.1714C3.40544 24.9502 4.19707 25.5787 5.09719 26.0106C5.99731 26.4425 6.98294 26.6667 7.98131 26.6667H9.46665C9.77267 28.1737 10.5903 29.5286 11.781 30.5018C12.9717 31.475 14.4622 32.0067 16 32.0067C17.5378 32.0067 19.0283 31.475 20.219 30.5018C21.4097 29.5286 22.2273 28.1737 22.5333 26.6667H23.6507C24.6784 26.6667 25.6923 26.4292 26.613 25.9726C27.5337 25.516 28.3365 24.8527 28.9584 24.0345C29.5804 23.2163 30.0048 22.2654 30.1984 21.2561C30.392 20.2467 30.3497 19.2063 30.0747 18.216H30.0733ZM16 29.3333C15.1756 29.3299 14.3725 29.0719 13.7004 28.5946C13.0283 28.1172 12.5201 27.4439 12.2453 26.6667H19.7547C19.4799 27.4439 18.9717 28.1172 18.2996 28.5946C17.6275 29.0719 16.8243 29.3299 16 29.3333V29.3333ZM26.8347 22.42C26.4631 22.9129 25.9817 23.3123 25.4288 23.5866C24.8758 23.8609 24.2666 24.0024 23.6493 24H7.98131C7.38236 23.9999 6.79107 23.8653 6.2511 23.6061C5.71113 23.3469 5.23625 22.9698 4.86153 22.5025C4.4868 22.0353 4.22179 21.4898 4.08606 20.9065C3.95033 20.3231 3.94734 19.7167 4.07731 19.132L6.03731 10.3107C6.50978 8.18561 7.67906 6.27948 9.35925 4.89527C11.0395 3.51106 13.1341 2.72823 15.3103 2.67122C17.4865 2.61421 19.6194 3.28629 21.3697 4.58063C23.1201 5.87496 24.3876 7.71727 24.9707 9.81467L27.504 18.9293C27.6714 19.5232 27.698 20.1478 27.5819 20.7538C27.4657 21.3597 27.2098 21.9302 26.8347 22.42V22.42Z" fill="#39374E"/>
</g>
<defs>
<clipPath id="clip0_134_259">
<rect width="32" height="32" fill="white"/>
</clipPath>
</defs>
</svg>

