<svg width="56" height="57" viewBox="0 0 56 57" fill="none" xmlns="http://www.w3.org/2000/svg">
<path d="M40.8734 29.7225C40.8516 25.9928 42.5414 23.1819 45.9539 21.1092C44.0453 18.3748 41.1578 16.8709 37.3516 16.5811C33.7477 16.2967 29.8047 18.6811 28.3609 18.6811C26.8352 18.6811 23.3461 16.6795 20.6008 16.6795C14.9352 16.767 8.91406 21.1967 8.91406 30.2092C8.91406 32.8725 9.40078 35.6233 10.3742 38.4561C11.6758 42.1858 16.368 51.324 21.2625 51.1764C23.8219 51.1162 25.632 49.3608 28.9625 49.3608C32.1945 49.3608 33.868 51.1764 36.7227 51.1764C41.6609 51.1053 45.9047 42.7983 47.1406 39.0576C40.518 35.935 40.8734 29.9139 40.8734 29.7225ZM35.1258 13.0428C37.8984 9.75061 37.6469 6.75374 37.5648 5.67639C35.1148 5.81858 32.282 7.34436 30.6687 9.22014C28.8914 11.2326 27.8469 13.7209 28.0711 16.5264C30.718 16.7287 33.1352 15.367 35.1258 13.0428Z" fill="white"/>
</svg>
