<svg width="48" height="49" viewBox="0 0 48 49" fill="none" xmlns="http://www.w3.org/2000/svg">
<path d="M43.611 20.5094H42V20.4264H24V28.4264H35.303C33.654 33.0834 29.223 36.4264 24 36.4264C17.373 36.4264 12 31.0534 12 24.4264C12 17.7994 17.373 12.4264 24 12.4264C27.059 12.4264 29.842 13.5804 31.961 15.4654L37.618 9.80839C34.046 6.47939 29.268 4.42639 24 4.42639C12.955 4.42639 4 13.3814 4 24.4264C4 35.4714 12.955 44.4264 24 44.4264C35.045 44.4264 44 35.4714 44 24.4264C44 23.0854 43.862 21.7764 43.611 20.5094Z" fill="#FFC107"/>
<path d="M6.30603 15.1174L12.877 19.9364C14.655 15.5344 18.961 12.4264 24 12.4264C27.059 12.4264 29.842 13.5804 31.961 15.4654L37.618 9.80839C34.046 6.47939 29.268 4.42639 24 4.42639C16.318 4.42639 9.65603 8.76339 6.30603 15.1174Z" fill="#FF3D00"/>
<path d="M23.9999 44.4263C29.1659 44.4263 33.8599 42.4493 37.4089 39.2343L31.2189 33.9963C29.1435 35.5747 26.6074 36.4284 23.9999 36.4263C18.7979 36.4263 14.3809 33.1093 12.7169 28.4803L6.19495 33.5053C9.50495 39.9823 16.2269 44.4263 23.9999 44.4263Z" fill="#4CAF50"/>
<path d="M43.611 20.5094H42V20.4264H24V28.4264H35.303C34.5142 30.6428 33.0934 32.5796 31.216 33.9974L31.219 33.9954L37.409 39.2334C36.971 39.6314 44 34.4264 44 24.4264C44 23.0854 43.862 21.7764 43.611 20.5094Z" fill="#1976D2"/>
</svg>
