 <svg
              width="54"
              height="54"
              viewBox="0 0 54 54"
              fill="none"
              xmlns="http://www.w3.org/2000/svg"
            >
              <path d="M6.75 6.75H13.5V13.5H6.75V6.75Z" fill="white" />
              <path
                d="M20.25 0V20.25H0V0H20.25ZM16.875 3.375H3.375V16.875H16.875V3.375ZM13.5 40.5H6.75V47.25H13.5V40.5Z"
                fill="white"
              />
              <path
                d="M20.25 33.75V54H0V33.75H20.25ZM3.375 37.125V50.625H16.875V37.125H3.375ZM40.5 6.75H47.25V13.5H40.5V6.75Z"
                fill="white"
              />
              <path
                d="M33.75 0V20.25H54V0H33.75ZM50.625 3.375V16.875H37.125V3.375H50.625ZM27 3.375V0H30.375V6.75H27V13.5H23.625V3.375H27ZM27 20.25V13.5H30.375V20.25H27ZM20.25 27V23.625H23.625V20.25H27V27H30.375V23.625H47.25V27H33.75V30.375H23.625V27H20.25ZM20.25 27V30.375H6.75V27H3.375V30.375H0V23.625H10.125V27H20.25ZM54 30.375H50.625V23.625H54V30.375ZM50.625 30.375H47.25V37.125H54V33.75H50.625V30.375ZM37.125 30.375H43.875V33.75H40.5V37.125H37.125V30.375ZM43.875 40.5V37.125H40.5V40.5H37.125V43.875H30.375V47.25H40.5V40.5H43.875ZM43.875 40.5H54V43.875H47.25V47.25H43.875V40.5ZM30.375 37.125V40.5H33.75V33.75H23.625V37.125H30.375Z"
                fill="white"
              />
              <path
                d="M23.625 40.5H27V50.625H40.5V54H23.625V40.5ZM54 47.25V54H43.875V50.625H50.625V47.25H54Z"
                fill="white"
              />
            </svg>