<svg
                    width="28"
                    height="28"
                    viewBox="0 0 38 38"
                    fill="none"
                    xmlns="http://www.w3.org/2000/svg"
                  >
                    <path
                      d="M18.933 0.359375C23.9183 0.359375 28.6994 2.33979 32.2246 5.86495C35.7497 9.39011 37.7302 14.1713 37.7302 19.1566C37.7302 24.1419 35.7497 28.9231 32.2246 32.4482C28.6994 35.9734 23.9183 37.9538 18.933 37.9538C13.9476 37.9538 9.16648 35.9734 5.64132 32.4482C2.11616 28.9231 0.135742 24.1419 0.135742 19.1566C0.135742 14.1713 2.11616 9.39011 5.64132 5.86495C9.16648 2.33979 13.9476 0.359375 18.933 0.359375V0.359375ZM10.7092 17.9818C10.3976 17.9818 10.0988 18.1055 9.87845 18.3259C9.65812 18.5462 9.53435 18.845 9.53435 19.1566C9.53435 19.4682 9.65812 19.767 9.87845 19.9873C10.0988 20.2076 10.3976 20.3314 10.7092 20.3314H24.3207L19.276 25.3738C19.1668 25.483 19.0801 25.6127 19.021 25.7554C18.9619 25.8981 18.9315 26.0511 18.9315 26.2055C18.9315 26.36 18.9619 26.513 19.021 26.6557C19.0801 26.7984 19.1668 26.9281 19.276 27.0373C19.3852 27.1465 19.5149 27.2332 19.6576 27.2923C19.8003 27.3514 19.9533 27.3818 20.1078 27.3818C20.2623 27.3818 20.4152 27.3514 20.5579 27.2923C20.7006 27.2332 20.8303 27.1465 20.9396 27.0373L27.9885 19.9884C28.0979 19.8792 28.1847 19.7496 28.2439 19.6069C28.3032 19.4641 28.3337 19.3111 28.3337 19.1566C28.3337 19.0021 28.3032 18.849 28.2439 18.7063C28.1847 18.5636 28.0979 18.4339 27.9885 18.3248L20.9396 11.2759C20.8303 11.1666 20.7006 11.08 20.5579 11.0209C20.4152 10.9617 20.2623 10.9313 20.1078 10.9313C19.9533 10.9313 19.8003 10.9617 19.6576 11.0209C19.5149 11.08 19.3852 11.1666 19.276 11.2759C19.1668 11.3851 19.0801 11.5148 19.021 11.6575C18.9619 11.8002 18.9315 11.9532 18.9315 12.1076C18.9315 12.2621 18.9619 12.4151 19.021 12.5578C19.0801 12.7005 19.1668 12.8302 19.276 12.9394L24.3207 17.9818H10.7092Z"
                      fill="#52FF27"
                    />
                  </svg>