<svg width="41" height="57" viewBox="0 0 41 57" fill="none" xmlns="http://www.w3.org/2000/svg">
<path d="M31.7846 38.2893C32.239 37.9864 32.6992 37.6952 33.1594 37.4097C34.173 36.7806 35.2623 36.2738 36.2526 35.6039C36.9924 35.1029 37.6856 34.5204 38.2914 33.8563C39.0312 33.0466 39.637 32.0971 39.9516 31.0427C40.0798 30.6175 40.1846 30.1631 40.1963 29.7146C40.2254 28.8233 40.2196 27.8505 40.0565 26.9709C39.9574 26.4408 39.8002 25.9223 39.5963 25.4272C38.4603 22.6253 36.0662 20.6621 33.5031 19.1767C32.4487 18.5651 31.4002 17.9592 30.3458 17.3476C28.9244 16.5262 27.5031 15.699 26.0817 14.8777C24.4332 13.9223 22.7788 12.9612 21.1302 12.0058C19.3943 10.9981 17.6526 9.9903 15.9166 8.98253C14.2273 8.00389 12.5438 7.02525 10.8545 6.04661C9.36325 5.17864 7.86616 4.31068 6.3749 3.44855C5.2215 2.76699 4.06227 2.09126 2.89722 1.41553C2.20985 1.01942 1.52247 0.617476 0.835087 0.221359C0.706932 0.145631 0.584602 0.0757282 0.456446 0V16.0136C0.456446 16.0136 -0.242583 19.4971 5.33218 22.9748L31.7846 38.2893Z" fill="url(#paint0_linear_8_110)"/>
<path d="M1.14954 28.5437V35.5049C1.14954 35.5049 1.14954 38.2893 3.2408 39.6816L17.8622 47.3418C18.1884 47.2136 18.5088 47.0738 18.835 46.934C19.4816 46.6602 20.1165 46.369 20.7457 46.0544C21.3748 45.734 22.0097 45.3728 22.4641 44.8194C22.7146 44.5165 22.9185 44.1787 23.0583 43.8117C23.2389 43.3398 23.2913 42.8272 23.2156 42.3262C23.1049 41.6389 22.7495 41.0097 22.3127 40.4796C22.0505 40.1592 21.7593 39.868 21.4447 39.6C20.9728 39.1923 20.4719 38.8835 19.9243 38.5922C19.7146 38.4816 19.5049 38.3651 19.2952 38.2544C19.033 38.1146 18.7651 37.9689 18.5029 37.8291C18.1942 37.6602 17.8796 37.4971 17.5709 37.3282C17.2214 37.1418 16.8719 36.9554 16.5224 36.7631C16.1379 36.5592 15.7593 36.3554 15.3748 36.1456C14.967 35.9243 14.5593 35.7088 14.1515 35.4874C13.7262 35.2602 13.301 35.033 12.8758 34.8058C12.4389 34.5728 12.002 34.3398 11.5651 34.1068C11.1224 33.8738 10.6855 33.635 10.2427 33.402C9.80585 33.1689 9.36896 32.9359 8.93207 32.7029C8.50682 32.4757 8.08158 32.2486 7.65634 32.0214C7.24857 31.8058 6.8408 31.5845 6.43303 31.3689C6.04857 31.1651 5.66993 30.9612 5.28546 30.7573C4.93595 30.5709 4.58643 30.3845 4.23692 30.1922C3.92818 30.0233 3.61362 29.8602 3.30488 29.6913C3.04274 29.5515 2.7806 29.4117 2.51264 29.266C2.30293 29.1554 2.09323 29.0388 1.88352 28.9282C1.73789 28.8466 1.58643 28.7709 1.4408 28.6893C1.35924 28.6486 1.28352 28.602 1.20196 28.5612C1.17284 28.5554 1.16119 28.5495 1.14954 28.5437Z" fill="url(#paint1_linear_8_110)"/>
<path d="M4.633 56.3884C6.93973 56.3884 8.8097 54.5184 8.8097 52.2117C8.8097 49.9049 6.93973 48.035 4.633 48.035C2.32627 48.035 0.456299 49.9049 0.456299 52.2117C0.456299 54.5184 2.32627 56.3884 4.633 56.3884Z" fill="url(#paint2_linear_8_110)"/>
<defs>
<linearGradient id="paint0_linear_8_110" x1="0.42732" y1="19.1445" x2="40.2085" y2="19.1445" gradientUnits="userSpaceOnUse">
<stop stop-color="#FF4926"/>
<stop offset="1" stop-color="#FD0D66"/>
</linearGradient>
<linearGradient id="paint1_linear_8_110" x1="1.15123" y1="37.9409" x2="23.2396" y2="37.9409" gradientUnits="userSpaceOnUse">
<stop stop-color="#FF4926"/>
<stop offset="1" stop-color="#FD0D66"/>
</linearGradient>
<linearGradient id="paint2_linear_8_110" x1="0.455017" y1="52.2123" x2="8.809" y2="52.2123" gradientUnits="userSpaceOnUse">
<stop stop-color="#FF4926"/>
<stop offset="1" stop-color="#FD0D66"/>
</linearGradient>
</defs>
</svg>
