<svg width="60" height="60" viewBox="0 0 60 60" fill="none" xmlns="http://www.w3.org/2000/svg">
<rect x="2" y="16" width="56" height="29" fill="white"/>
<path d="M50 0H10C7.34784 0 4.8043 1.05357 2.92893 2.92893C1.05357 4.8043 0 7.34784 0 10V50C0 52.6522 1.05357 55.1957 2.92893 57.0711C4.8043 58.9464 7.34784 60 10 60H50C52.6522 60 55.1957 58.9464 57.0711 57.0711C58.9464 55.1957 60 52.6522 60 50V10C60 7.34784 58.9464 4.8043 57.0711 2.92893C55.1957 1.05357 52.6522 0 50 0ZM39.0333 34.3C39.3458 34.6099 39.5937 34.9785 39.763 35.3847C39.9322 35.7909 40.0193 36.2266 40.0193 36.6667C40.0193 37.1067 39.9322 37.5424 39.763 37.9486C39.5937 38.3548 39.3458 38.7235 39.0333 39.0333C38.7235 39.3458 38.3548 39.5937 37.9486 39.763C37.5424 39.9322 37.1067 40.0193 36.6667 40.0193C36.2266 40.0193 35.7909 39.9322 35.3847 39.763C34.9785 39.5937 34.6099 39.3458 34.3 39.0333L30 34.7L25.7 39.0333C25.3901 39.3458 25.0215 39.5937 24.6153 39.763C24.2091 39.9322 23.7734 40.0193 23.3333 40.0193C22.8933 40.0193 22.4576 39.9322 22.0514 39.763C21.6452 39.5937 21.2765 39.3458 20.9667 39.0333C20.6542 38.7235 20.4063 38.3548 20.237 37.9486C20.0678 37.5424 19.9807 37.1067 19.9807 36.6667C19.9807 36.2266 20.0678 35.7909 20.237 35.3847C20.4063 34.9785 20.6542 34.6099 20.9667 34.3L25.3 30L20.9667 25.7C20.339 25.0723 19.9864 24.221 19.9864 23.3333C19.9864 22.4457 20.339 21.5943 20.9667 20.9667C21.5943 20.339 22.4457 19.9864 23.3333 19.9864C24.221 19.9864 25.0723 20.339 25.7 20.9667L30 25.3L34.3 20.9667C34.9277 20.339 35.779 19.9864 36.6667 19.9864C37.5543 19.9864 38.4057 20.339 39.0333 20.9667C39.661 21.5943 40.0136 22.4457 40.0136 23.3333C40.0136 24.221 39.661 25.0723 39.0333 25.7L34.7 30L39.0333 34.3Z" fill="#E92A35"/>
</svg>
